<svg version="1.1" id="Layer_1" xmlns="http://www.w3.org/2000/svg" xmlns:xlink="http://www.w3.org/1999/xlink" x="0px" y="0px"
	 width="100%" viewBox="0 0 1024 1024" enable-background="new 0 0 1024 1024" xml:space="preserve">
<circle cx="512" cy="512" r="512" fill="#ffffff" />
<g transform="translate(512,512) scale(1.4) translate(-512,-512)">
<path fill="#000000" opacity="1.000000" stroke="none" 
	d="
M573.396301,575.560059 
	C574.656433,594.598267 560.989563,611.927612 543.326599,614.145752 
	C523.259094,616.665833 505.352753,603.721619 502.018494,584.284668 
	C498.817810,565.626526 511.360504,547.220947 530.085571,543.098206 
	C550.976074,538.498596 572.096069,554.134705 573.396301,575.560059 
z"/>
<path fill="#000000" opacity="1.000000" stroke="none" 
	d="
M540.839355,511.388916 
	C528.445435,504.349854 522.583496,493.891724 523.991699,480.162018 
	C525.246277,467.930664 532.075867,459.255249 543.645020,454.684601 
	C556.417114,449.638763 570.468323,453.598785 579.041382,464.502930 
	C587.410645,475.147858 587.992981,489.652008 580.499695,500.826233 
	C572.958313,512.072205 558.733093,517.205566 545.855469,513.291443 
	C544.268921,512.809204 542.741272,512.133118 540.839355,511.388916 
z"/>
<path fill="#000000" opacity="1.000000" stroke="none" 
	d="
M450.263489,585.894897 
	C451.893005,603.587341 440.217651,618.374390 423.603119,620.120361 
	C407.135498,621.850830 391.988953,610.205322 389.902405,594.209351 
	C387.716949,577.455505 398.851410,562.298340 415.251221,559.702454 
	C432.138550,557.029419 447.172058,568.107544 450.263489,585.894897 
z"/>
<path fill="#000000" opacity="1.000000" stroke="none" 
	d="
M445.843842,491.837402 
	C454.768463,484.263000 464.477692,481.473083 475.350006,485.640472 
	C485.698914,489.607239 491.755890,497.417755 493.325226,508.356476 
	C495.556458,523.908752 485.345978,537.354553 469.643005,539.966125 
	C455.030579,542.396423 440.539276,531.929260 437.853271,516.850769 
	C436.155029,507.317078 439.112152,499.125641 445.843842,491.837402 
z"/>
<path fill="#000000" opacity="1.000000" stroke="none" 
	d="
M621.502991,634.806213 
	C623.490601,648.627808 614.739319,661.494629 601.943298,664.100464 
	C588.380188,666.862549 575.763733,659.098206 571.874084,645.595459 
	C568.360779,633.399292 575.094788,619.841553 586.867798,615.407959 
	C599.875854,610.509338 613.758911,616.143921 619.524353,628.736572 
	C620.347656,630.534790 620.795959,632.504700 621.502991,634.806213 
z"/>
<path fill="#000000" opacity="1.000000" stroke="none" 
	d="
M606.406128,380.219971 
	C616.981689,384.819122 622.407593,392.577362 622.268005,403.742218 
	C622.141235,413.876648 617.133484,421.076294 607.875610,425.196594 
	C598.606812,429.321777 587.288025,426.807892 580.467468,419.235046 
	C573.210449,411.177551 572.085815,400.087860 577.559937,390.563995 
	C582.736023,381.558777 592.853577,377.092804 603.144958,379.288086 
	C604.119629,379.496002 605.072021,379.808685 606.406128,380.219971 
z"/>
<path fill="#000000" opacity="1.000000" stroke="none" 
	d="
M369.627350,598.689697 
	C373.862518,607.304993 373.321350,615.294006 367.235657,622.232361 
	C361.649506,628.601196 354.351410,630.932251 346.038361,628.363770 
	C337.595428,625.755188 332.769318,619.788391 331.519836,611.118286 
	C330.208649,602.019836 335.692444,593.129211 344.384521,589.757874 
	C354.045471,586.010803 362.926147,589.060425 369.627350,598.689697 
z"/>
<path fill="#000000" opacity="1.000000" stroke="none" 
	d="
M474.022461,424.494507 
	C483.775269,422.662964 491.634583,426.627258 494.699036,434.598694 
	C497.703156,442.413239 494.845551,451.050323 487.779572,455.512421 
	C479.957672,460.451874 469.592621,458.082489 464.625153,450.219452 
	C459.505646,442.115723 461.470062,432.060242 469.236115,426.930878 
	C470.610199,426.023346 472.162323,425.385315 474.022461,424.494507 
z"/>
<path fill="#000000" opacity="1.000000" stroke="none" 
	d="
M670.656250,619.609924 
	C671.151917,629.605530 665.993652,636.293335 657.051270,637.767944 
	C650.015930,638.928040 642.039490,633.391785 640.143799,626.032898 
	C638.110901,618.141235 642.395813,610.114502 650.184814,607.223450 
	C658.901550,603.988037 667.507446,609.054443 670.656250,619.609924 
z"/>
<path fill="#000000" opacity="1.000000" stroke="none" 
	d="
M624.161133,524.980469 
	C619.414001,530.776245 613.634705,532.437073 606.922913,530.468872 
	C601.012146,528.735657 596.367859,522.919434 596.138123,516.768616 
	C595.894653,510.250641 598.723755,505.166229 604.482239,501.915985 
	C610.479431,498.531036 617.717651,499.780426 622.752686,504.976440 
	C628.086670,510.480957 628.638306,517.156799 624.161133,524.980469 
z"/>
<path fill="#000000" opacity="1.000000" stroke="none" 
	d="
M646.105225,371.539246 
	C639.108276,372.531677 634.071106,369.846771 632.113770,364.419006 
	C630.140503,358.946777 632.224915,353.026825 637.137146,350.152008 
	C642.736450,346.875061 648.508728,348.141144 652.443970,353.509369 
	C655.909729,358.237152 654.995789,365.433228 650.341614,369.195953 
	C649.203857,370.115875 647.775574,370.676483 646.105225,371.539246 
z"/>
<path fill="#000000" opacity="1.000000" stroke="none" 
	d="
M304.934265,575.608826 
	C312.070343,574.349182 317.491730,577.703735 318.878693,583.878906 
	C320.150513,589.541382 316.090027,595.416443 309.960236,596.782654 
	C304.714325,597.951965 299.137970,594.206787 297.598785,588.480530 
	C296.241760,583.432129 298.753448,578.832764 304.934265,575.608826 
z"/>
<path fill="#000000" opacity="1.000000" stroke="none" 
	d="
M649.087646,522.412720 
	C643.603333,521.086426 640.739136,517.893005 640.878845,513.654846 
	C641.015869,509.500031 644.399902,505.718628 648.713257,505.277710 
	C653.127808,504.826416 655.967163,507.270264 657.566467,511.096832 
	C659.770386,516.369995 656.260681,521.155945 649.087646,522.412720 
z"/>
<path fill="#000000" opacity="1.000000" stroke="none" 
	d="
M683.609741,583.636597 
	C687.407104,580.358215 691.046814,580.134460 694.643005,583.117615 
	C697.537231,585.518494 699.009399,588.557922 697.589600,592.335510 
	C696.177307,596.093018 693.464539,598.315002 689.324280,598.245972 
	C685.218445,598.177490 682.484558,596.012634 681.226990,592.145325 
	C680.209961,589.017517 681.263062,586.306213 683.609741,583.636597 
z"/>
<path fill="#000000" opacity="1.000000" stroke="none" 
	d="
M472.074158,395.862213 
	C469.595520,390.225433 470.309479,386.283417 474.106598,383.694305 
	C477.502380,381.378876 480.962280,381.291473 484.145905,384.048828 
	C487.612549,387.051239 488.132355,390.823151 486.177612,394.827789 
	C483.682190,399.940033 477.980042,400.429352 472.074158,395.862213 
z"/>
<path fill="#000000" opacity="1.000000" stroke="none" 
	d="
M686.632751,532.541321 
	C680.728455,535.659241 675.498779,533.739868 674.784119,528.496582 
	C674.301819,524.957703 675.710938,522.315002 678.905823,520.716064 
	C682.035706,519.149597 684.869507,520.004333 687.030945,522.432068 
	C689.868530,525.619202 689.800110,529.039978 686.632751,532.541321 
z"/>
<path fill="#000000" opacity="1.000000" stroke="none" 
	d="
M464.591553,362.339508 
	C460.081909,362.595978 458.097534,360.282867 457.829498,356.472717 
	C457.596863,353.165680 459.545532,351.153351 462.687775,350.621399 
	C466.093475,350.044830 468.658600,351.718109 469.592163,354.887695 
	C470.735046,358.768097 468.610657,361.137115 464.591553,362.339508 
z"/>
<path fill="#000000" opacity="1.000000" stroke="none" 
	d="
M702.453186,548.212036 
	C705.934204,549.802856 707.520752,552.135071 706.282227,555.548828 
	C705.367798,558.069092 703.416748,559.698853 700.566528,559.513733 
	C697.105103,559.289001 694.743347,557.402100 694.969238,553.835266 
	C695.231934,549.688416 697.833252,547.686523 702.453186,548.212036 
z"/>
</g>
</svg>